<?xml version="1.0" standalone="no"?>
<!DOCTYPE svg PUBLIC "-//W3C//DTD SVG 20010904//EN"
 "http://www.w3.org/TR/2001/REC-SVG-20010904/DTD/svg10.dtd">
<svg version="1.0" xmlns="http://www.w3.org/2000/svg"
 width="1024.000000pt" height="512.000000pt" viewBox="0 0 1024.000000 512.000000"
 preserveAspectRatio="xMidYMid meet">

<g transform="translate(0.000000,512.000000) scale(0.100000,-0.100000)"
fill="#000000" stroke="none">
<path d="M3150 3300 l0 -190 225 0 225 0 0 190 0 190 -225 0 -225 0 0 -190z"/>
<path d="M5470 2768 l0 -722 36 35 c20 18 122 117 225 218 l189 185 0 503 0
503 -225 0 -225 0 0 -722z"/>
<path d="M8582 2713 c3 -694 5 -784 20 -834 61 -205 192 -332 398 -388 85 -23
223 -41 323 -41 l67 0 0 204 0 203 -78 5 c-131 9 -217 60 -259 153 -15 35 -18
77 -21 307 l-3 268 218 2 218 3 0 185 0 185 -217 3 -218 2 0 260 0 260 -225 0
-226 0 3 -777z"/>
<path d="M1061 3010 c-247 -52 -448 -205 -557 -425 -64 -129 -85 -223 -85
-370 0 -147 21 -241 85 -370 100 -203 268 -343 491 -411 80 -24 106 -27 230
-27 169 0 250 19 386 89 164 85 311 249 378 423 17 44 31 87 31 96 0 13 -30
15 -230 15 -228 0 -229 0 -241 -22 -27 -53 -82 -107 -141 -139 -61 -33 -67
-34 -173 -34 -107 0 -112 1 -174 35 -147 80 -218 257 -177 444 42 188 188 298
374 282 124 -10 204 -56 272 -156 l41 -60 219 0 c133 0 221 4 225 10 3 5 -7
48 -23 95 -83 240 -264 416 -512 497 -85 27 -110 31 -235 34 -77 2 -160 -1
-184 -6z"/>
<path d="M4365 3005 c-189 -41 -358 -148 -471 -299 -60 -80 -98 -155 -131
-263 -23 -77 -26 -105 -26 -228 0 -123 3 -151 26 -228 73 -238 222 -412 439
-511 118 -54 195 -70 343 -70 137 0 201 11 317 58 211 86 382 269 459 495 11
30 19 58 19 63 0 4 -103 8 -230 8 l-230 0 -23 -37 c-38 -60 -109 -118 -173
-143 -49 -18 -74 -21 -150 -18 -112 5 -182 35 -248 109 -69 76 -90 141 -91
274 0 103 2 114 31 175 42 90 84 134 162 172 60 30 75 33 152 33 47 -1 104 -6
126 -13 62 -18 138 -80 181 -144 l37 -58 222 0 c123 0 225 3 227 8 9 13 -38
145 -78 222 -48 92 -190 240 -280 292 -86 49 -184 87 -272 104 -91 17 -257 17
-338 -1z"/>
<path d="M7464 3006 c-146 -33 -265 -99 -375 -206 -168 -165 -248 -356 -249
-593 0 -132 19 -224 70 -334 49 -105 89 -163 167 -240 160 -157 398 -246 614
-230 266 21 481 161 631 410 l49 82 -232 3 -233 2 -35 -34 c-69 -65 -113 -81
-231 -81 -88 0 -113 4 -154 23 -99 45 -172 129 -191 220 l-7 32 566 0 565 0 7
47 c11 74 -3 250 -26 333 -38 135 -103 243 -210 350 -103 104 -190 157 -325
200 -90 29 -307 37 -401 16z m321 -390 c67 -31 120 -78 156 -140 53 -92 75
-86 -306 -86 -377 0 -354 -6 -311 78 42 82 128 148 223 172 60 15 179 3 238
-24z"/>
<path d="M2165 2958 c-3 -7 -4 -348 -3 -758 l3 -745 228 -3 227 -2 0 423 c0
489 2 503 76 574 49 47 105 68 214 79 l70 7 0 218 0 219 -35 0 c-128 0 -254
-65 -318 -163 l-32 -50 -3 107 -3 106 -210 0 c-158 0 -211 -3 -214 -12z"/>
<path d="M3150 2210 l0 -760 225 0 225 0 0 760 0 760 -225 0 -225 0 0 -760z"/>
<path d="M9560 2955 c0 -8 9 -15 20 -15 18 0 20 -7 20 -70 0 -56 3 -70 15 -70
12 0 15 14 15 70 0 63 2 70 20 70 11 0 20 7 20 15 0 12 -13 15 -55 15 -42 0
-55 -3 -55 -15z"/>
<path d="M9690 2886 c0 -70 3 -86 15 -86 11 0 15 13 16 58 l1 57 21 -57 c12
-32 27 -58 34 -58 6 0 19 22 28 50 23 70 38 74 34 9 -3 -45 -1 -54 14 -57 15
-3 17 6 17 83 l0 86 -27 -3 c-22 -2 -29 -11 -42 -50 -9 -26 -19 -49 -22 -53
-4 -3 -15 18 -25 47 -15 40 -25 54 -42 56 -21 3 -22 1 -22 -82z"/>
<path d="M6126 2061 l-159 -159 214 -226 214 -226 318 0 319 0 -27 33 c-15 17
-145 154 -289 302 -143 149 -297 307 -340 353 -44 45 -82 82 -85 82 -4 0 -78
-72 -165 -159z"/>
</g>
</svg>
